<svg aria-hidden="true" style="position: absolute; width: 0; height: 0; overflow: hidden;" xmlns="http://www.w3.org/2000/svg">
  <symbol id="icon-arrow" viewBox="0 0 32 32">
    <path 
      stroke-linejoin="round" 
      stroke-linecap="round" 
      stroke-miterlimit="4" 
      stroke-width="2.5" 
      d="M6.667 16h18.667M16 6.667l9.333 9.333-9.333 9.333"
      stroke="currentColor"
      fill="none"
    />
  </symbol>
  <symbol id="icon-entidades-card-decor-circles-and-star" viewBox="0 0 87 32">
  <path d="M10.182 16c0 2.812-2.279 5.091-5.091 5.091s-5.091-2.279-5.091-5.091c0-2.812 2.279-5.091 5.091-5.091s5.091 2.279 5.091 5.091z" />
  <path d="M43.26 2.667c-7.193 0-13.017 5.973-13.017 13.333s5.825 13.333 13.018 13.333c7.205 0 13.043-5.973 13.043-13.333s-5.838-13.333-13.044-13.333zM48.785 24l-5.513-3.4-5.512 3.4 1.46-6.413-4.86-4.307 6.411-0.56 2.502-6.053 2.502 6.040 6.411 0.56-4.86 4.306 1.46 6.427z"/>
  <path d="M86.545 16c0 2.812-2.279 5.091-5.091 5.091s-5.091-2.279-5.091-5.091c0-2.812 2.279-5.091 5.091-5.091s5.091 2.279 5.091 5.091z"/>
</symbol>

<symbol id="icon-phone" viewBox="0 0 32 32">
<path d="M4.325 7.193l3.328-3.324c0.458-0.461 1.091-0.746 1.792-0.746s1.334 0.285 1.792 0.746l0 0 3.581 3.581c0.46 0.458 0.745 1.092 0.745 1.792s-0.285 1.334-0.745 1.792l-2.619 2.619c0.647 1.405 1.492 2.605 2.516 3.626l0 0c1.022 1.027 2.222 1.876 3.551 2.495l0.076 0.032 2.62-2.619c0.458-0.46 1.092-0.745 1.792-0.745s1.334 0.285 1.792 0.745l0 0 3.584 3.577c0.461 0.458 0.746 1.092 0.746 1.793s-0.285 1.335-0.746 1.793l-3.321 3.323c-0.743 0.74-1.767 1.198-2.899 1.198-0.234 0-0.463-0.020-0.685-0.057l0.024 0.003c-4.212-0.693-8.389-2.933-11.761-6.303-3.369-3.365-5.607-7.541-6.309-11.767-0.033-0.196-0.052-0.423-0.052-0.653 0-1.133 0.458-2.159 1.199-2.903l-0 0z"></path>
</symbol>
<symbol id="icon-email" viewBox="0 0 32 32">
<path d="M6.192 6.4h21.2c2 0 3.008 0.944 3.008 2.864v13.472c0 1.904-1.008 2.864-3.008 2.864h-21.2c-2 0-3.008-0.96-3.008-2.864v-13.472c0-1.92 1.008-2.864 3.008-2.864zM16.784 20.16l10.784-8.848c0.384-0.32 0.688-1.056 0.208-1.712-0.464-0.656-1.312-0.672-1.872-0.272l-9.12 6.176-9.104-6.176c-0.56-0.4-1.408-0.384-1.872 0.272-0.48 0.656-0.176 1.392 0.208 1.712l10.768 8.848z"></path>
</symbol>
<symbol id="icon-placemark" viewBox="0 0 32 32">
<path d="M14.848 28.7c-2.537-3.176-8.181-10.876-8.181-15.2 0-5.247 4.179-9.5 9.333-9.5 5.153 0 9.333 4.253 9.333 9.5 0 4.324-5.688 12.024-8.181 15.2-0.268 0.346-0.684 0.567-1.152 0.567s-0.884-0.221-1.15-0.564l-0.002-0.003zM16 16.667c1.716 0 3.111-1.42 3.111-3.167s-1.395-3.167-3.111-3.167c-1.716 0-3.111 1.42-3.111 3.167s1.395 3.167 3.111 3.167z"></path>
</symbol>

<symbol id="icon-facebook" viewBox="0 0 31 32">
<path fill="#fff" style="fill: var(--color1, #fff)" d="M15.543 0.457c8.584 0 15.543 6.959 15.543 15.543s-6.959 15.543-15.543 15.543c-8.584 0-15.543-6.959-15.543-15.543s6.959-15.543 15.543-15.543z"></path>
<path fill="#192031" style="fill: var(--color2, #192031)" d="M13.52 22.4v-6.007h-1.634v-2.161h1.634v-1.847c0-1.452 0.965-2.785 3.188-2.785 0.901 0 1.566 0.084 1.566 0.084l-0.052 2.019s-0.679-0.006-1.42-0.006c-0.802 0-0.931 0.359-0.931 0.956v1.579h2.415l-0.104 2.162h-2.309v6.006h-2.352z"></path>
</symbol>
<symbol id="icon-twitter" viewBox="0 0 31 32">
<path fill="#fff" style="fill: var(--color1, #fff)" d="M15.543 0.457c8.584 0 15.543 6.959 15.543 15.543s-6.959 15.543-15.543 15.543c-8.584 0-15.543-6.959-15.543-15.543s6.959-15.543 15.543-15.543z"></path>
<path fill="#192031" style="fill: var(--color2, #192031)" d="M23.771 11.158c-0.565 0.245-1.221 0.424-1.907 0.503l-0.033 0.003c0.691-0.394 1.215-1.013 1.477-1.756l0.007-0.023c-0.618 0.356-1.337 0.627-2.1 0.774l-0.044 0.007c-0.625-0.628-1.49-1.016-2.446-1.016-0.006 0-0.013 0-0.019 0h0.001c-1.865 0-3.376 1.44-3.376 3.216 0 0.252 0.030 0.497 0.088 0.733-2.807-0.134-5.294-1.415-6.96-3.361-0.291 0.475-0.457 1.028-0.457 1.616 0 1.116 0.596 2.101 1.502 2.678-0.562-0.017-1.086-0.164-1.548-0.411l0.019 0.009v0.040c0 1.558 1.164 2.859 2.708 3.154-0.266 0.072-0.572 0.113-0.887 0.113-0.226 0-0.446-0.021-0.66-0.061l0.022 0.003c0.43 1.278 1.677 2.208 3.154 2.234-1.148 0.86-2.597 1.377-4.166 1.377-0.009 0-0.019-0-0.028-0h0.001c-0.272 0-0.541-0.015-0.806-0.045 1.467 0.907 3.246 1.445 5.151 1.445 0.008 0 0.017 0 0.026-0h-0.001c6.211 0 9.607-4.901 9.607-9.152-0-0.146-0.004-0.291-0.011-0.436l0.001 0.020c0.662-0.458 1.22-1.011 1.671-1.645l0.014-0.021z"></path>
</symbol>
<symbol id="icon-linkedin" viewBox="0 0 31 32">
<path fill="#fff" style="fill: var(--color1, #fff)" d="M15.543 0.457c8.584 0 15.543 6.959 15.543 15.543s-6.959 15.543-15.543 15.543c-8.584 0-15.543-6.959-15.543-15.543s6.959-15.543 15.543-15.543z"></path>
<path fill="#192031" style="fill: var(--color2, #192031)" d="M11.55 22.4v-9.253h-3.136v9.253h3.136zM9.982 11.883c1.094 0 1.774-0.71 1.774-1.598-0.020-0.908-0.68-1.599-1.753-1.599s-1.775 0.691-1.775 1.599c0 0.887 0.68 1.598 1.733 1.598h0.020zM13.286 22.4h3.136v-5.168c0-0.276 0.021-0.552 0.104-0.75 0.227-0.553 0.742-1.125 1.609-1.125 1.134 0 1.588 0.848 1.588 2.092v4.95h3.136v-5.306c0-2.842-1.547-4.165-3.61-4.165-1.691 0-2.435 0.927-2.847 1.559h0.021v-1.341h-3.136c0.040 0.869 0 9.253 0 9.253v0.001z"></path>
</symbol>
<symbol id="icon-instagram" viewBox="0 0 31 32">
<path fill="#fff" style="fill: var(--color1, #fff)" d="M15.543 0.457c8.584 0 15.543 6.959 15.543 15.543s-6.959 15.543-15.543 15.543c-8.584 0-15.543-6.959-15.543-15.543s6.959-15.543 15.543-15.543z"></path>
<path fill="#192031" style="fill: var(--color2, #192031)" d="M15.546 12.304c-2.076 0-3.751 1.649-3.751 3.694s1.675 3.694 3.751 3.694c2.077 0 3.752-1.649 3.752-3.694s-1.675-3.694-3.752-3.694zM15.546 18.398c-1.341 0-2.439-1.077-2.439-2.401s1.094-2.401 2.439-2.401c1.346 0 2.439 1.076 2.439 2.401s-1.097 2.401-2.439 2.401zM20.326 12.154c-0.004 0.476-0.39 0.86-0.867 0.86-0.003 0-0.006 0-0.009-0h0c-0.002 0-0.005 0-0.008 0-0.477 0-0.864-0.385-0.867-0.861v-0c0.004-0.477 0.391-0.861 0.869-0.861 0.002 0 0.005 0 0.007 0h-0c0.002 0 0.004-0 0.006-0 0.477 0 0.864 0.385 0.869 0.861v0zM22.811 13.027c-0.056-1.154-0.324-2.176-1.182-3.017-0.856-0.843-1.894-1.106-3.067-1.164-1.208-0.068-4.829-0.068-6.037 0-1.169 0.055-2.207 0.318-3.066 1.16s-1.123 1.864-1.182 3.017c-0.069 1.19-0.069 4.754 0 5.944 0.056 1.154 0.324 2.176 1.182 3.018s1.894 1.106 3.066 1.164c1.208 0.068 4.829 0.068 6.037 0 1.172-0.055 2.211-0.318 3.067-1.164 0.856-0.841 1.124-1.864 1.182-3.017 0.069-1.19 0.069-4.752 0-5.941zM21.251 20.243c-0.259 0.631-0.755 1.12-1.375 1.364l-0.017 0.006c-0.963 0.375-3.248 0.289-4.314 0.289s-3.354 0.083-4.313-0.289c-0.636-0.25-1.132-0.739-1.386-1.353l-0.006-0.016c-0.382-0.948-0.293-3.198-0.293-4.246s-0.085-3.301 0.293-4.246c0.259-0.631 0.755-1.12 1.375-1.364l0.017-0.006c0.963-0.376 3.248-0.289 4.313-0.289s3.354-0.084 4.314 0.289c0.64 0.251 1.134 0.736 1.392 1.37 0.382 0.948 0.294 3.198 0.294 4.246s0.088 3.301-0.294 4.246z"></path>
</symbol>
</svg>