<svg aria-hidden="true" style="position: absolute; width: 0; height: 0; overflow: hidden;" xmlns="http://www.w3.org/2000/svg">
  <symbol id="icon-arrow" viewBox="0 0 32 32">
    <path 
      stroke-linejoin="round" 
      stroke-linecap="round" 
      stroke-miterlimit="4" 
      stroke-width="2.5" 
      d="M6.667 16h18.667M16 6.667l9.333 9.333-9.333 9.333"
      stroke="currentColor"
      fill="none"
    />
  </symbol>
  <symbol id="icon-entidades-card-decor-circles-and-star" viewBox="0 0 87 32">
  <path d="M10.182 16c0 2.812-2.279 5.091-5.091 5.091s-5.091-2.279-5.091-5.091c0-2.812 2.279-5.091 5.091-5.091s5.091 2.279 5.091 5.091z" />
  <path d="M43.26 2.667c-7.193 0-13.017 5.973-13.017 13.333s5.825 13.333 13.018 13.333c7.205 0 13.043-5.973 13.043-13.333s-5.838-13.333-13.044-13.333zM48.785 24l-5.513-3.4-5.512 3.4 1.46-6.413-4.86-4.307 6.411-0.56 2.502-6.053 2.502 6.040 6.411 0.56-4.86 4.306 1.46 6.427z"/>
  <path d="M86.545 16c0 2.812-2.279 5.091-5.091 5.091s-5.091-2.279-5.091-5.091c0-2.812 2.279-5.091 5.091-5.091s5.091 2.279 5.091 5.091z"/>
</symbol>
</svg>