<svg width="208" height="66" viewBox="0 0 208 66" fill="none" xmlns="http://www.w3.org/2000/svg">
<g id="Frame 427320849">
<g id="Financiea en Venta 1" clip-path="url(#clip0_1_5019)">
<path id="Vector" fill-rule="evenodd" clip-rule="evenodd" d="M0.0894775 8.0893H50.7206C50.7206 33.6969 28.0517 54.4534 0.0894775 54.4534V8.0893Z" fill="#BAE289" stroke="#BAE289" stroke-width="0.57" stroke-miterlimit="22.93"/>
<path id="Vector_2" fill-rule="evenodd" clip-rule="evenodd" d="M2.578 57.3111L12.2321 57.1867L15.3692 38.7297L29.9301 38.6085L28.4925 30.0514L16.7045 30.045L18.3401 19.0512C25.3586 19.0512 32.6934 19.2075 39.7088 19.2075L38.252 10.2995L9.66041 10.3857L2.578 57.3111Z" stroke="#1A1A18" stroke-width="4.25" stroke-miterlimit="22.93"/>
<path id="Vector_3" fill-rule="evenodd" clip-rule="evenodd" d="M40.2998 24.773L42.8682 42.3592L59.2852 10.2453L68.853 10.3633L45.1044 56.8135L36.1692 56.8295L31.0099 24.5657L40.2998 24.773Z" fill="#1A1A18" stroke="#1A1A18" stroke-width="0.57" stroke-miterlimit="22.93"/>
</g>
<path id="FINANCIERA EN VENTA" d="M78.68 26V8.72H88.916V11.228H81.188V16.1H87.476V18.62H81.188V26H78.68ZM90.1184 26V8.72H92.6264V26H90.1184ZM95.03 26V8.72H97.574L106.082 21.56V8.72H108.626V26H106.082L97.574 13.148V26H95.03ZM109.575 26L115.191 8.72H118.803L124.419 26H121.815L116.643 10.232H117.291L112.179 26H109.575ZM112.491 22.1V19.748H121.515V22.1H112.491ZM125.372 26V8.72H127.916L136.424 21.56V8.72H138.968V26H136.424L127.916 13.148V26H125.372ZM148.33 26.36C146.602 26.36 145.13 25.984 143.914 25.232C142.698 24.472 141.766 23.416 141.118 22.064C140.478 20.712 140.158 19.144 140.158 17.36C140.158 15.576 140.478 14.008 141.118 12.656C141.766 11.304 142.698 10.252 143.914 9.5C145.13 8.74 146.602 8.36 148.33 8.36C150.322 8.36 151.97 8.864 153.273 9.872C154.586 10.88 155.498 12.236 156.01 13.94L153.466 14.624C153.13 13.416 152.53 12.468 151.666 11.78C150.81 11.092 149.698 10.748 148.33 10.748C147.106 10.748 146.086 11.024 145.27 11.576C144.454 12.128 143.838 12.9 143.422 13.892C143.014 14.884 142.81 16.04 142.81 17.36C142.802 18.68 143.002 19.836 143.41 20.828C143.826 21.82 144.442 22.592 145.258 23.144C146.082 23.696 147.106 23.972 148.33 23.972C149.698 23.972 150.81 23.628 151.666 22.94C152.53 22.244 153.13 21.296 153.466 20.096L156.01 20.78C155.498 22.484 154.586 23.84 153.273 24.848C151.97 25.856 150.322 26.36 148.33 26.36ZM157.689 26V8.72H160.197V26H157.689ZM162.6 26V8.72H173.64V11.084H165.108V15.932H172.2V18.296H165.108V23.636H173.64V26H162.6ZM175.322 26V8.72H182.306C182.474 8.72 182.682 8.728 182.93 8.744C183.178 8.752 183.414 8.776 183.638 8.816C184.598 8.968 185.398 9.296 186.038 9.8C186.686 10.304 187.17 10.94 187.49 11.708C187.81 12.476 187.97 13.324 187.97 14.252C187.97 15.628 187.618 16.816 186.914 17.816C186.21 18.808 185.154 19.428 183.746 19.676L182.726 19.796H177.83V26H175.322ZM185.426 26L182.018 18.968L184.55 18.32L188.294 26H185.426ZM177.83 17.42H182.21C182.37 17.42 182.546 17.412 182.738 17.396C182.938 17.38 183.126 17.352 183.302 17.312C183.814 17.192 184.226 16.972 184.538 16.652C184.85 16.324 185.074 15.948 185.21 15.524C185.346 15.1 185.414 14.676 185.414 14.252C185.414 13.828 185.346 13.408 185.21 12.992C185.074 12.568 184.85 12.196 184.538 11.876C184.226 11.548 183.814 11.324 183.302 11.204C183.126 11.156 182.938 11.124 182.738 11.108C182.546 11.092 182.37 11.084 182.21 11.084H177.83V17.42ZM188.532 26L194.148 8.72H197.76L203.376 26H200.772L195.6 10.232H196.248L191.136 26H188.532ZM191.448 22.1V19.748H200.472V22.1H191.448ZM78.68 59V41.72H89.72V44.084H81.188V48.932H88.28V51.296H81.188V56.636H89.72V59H78.68ZM91.4019 59V41.72H93.9459L102.454 54.56V41.72H104.998V59H102.454L93.9459 46.148V59H91.4019ZM114.808 59L109.192 41.72H111.796L116.584 56.468L121.432 41.72H124.036L118.42 59H114.808ZM124.646 59V41.72H135.686V44.084H127.154V48.932H134.246V51.296H127.154V56.636H135.686V59H124.646ZM137.368 59V41.72H139.912L148.42 54.56V41.72H150.964V59H148.42L139.912 46.148V59H137.368ZM157.421 59V44.084H151.673V41.72H165.677V44.084H159.929V59H157.421ZM164.728 59L170.344 41.72H173.956L179.572 59H176.968L171.796 43.232H172.444L167.332 59H164.728ZM167.644 55.1V52.748H176.668V55.1H167.644Z" fill="#020407"/>
</g>
<defs>
<clipPath id="clip0_1_5019">
<rect width="69" height="50" fill="white" transform="translate(0 8)"/>
</clipPath>
</defs>
</svg>
